<svg width="59" height="56" viewBox="0 0 59 56" fill="none" xmlns="http://www.w3.org/2000/svg">
<path d="M5.89422 55.9951C4.27331 55.9951 2.8862 55.4185 1.7329 54.2651C0.577634 53.1099 0 51.7218 0 50.1009V17.6827C0 16.0618 0.577634 14.6746 1.7329 13.5213C2.8862 12.3661 4.27331 11.7884 5.89422 11.7884H17.6827V5.89422C17.6827 4.27331 18.2603 2.88522 19.4156 1.72995C20.5689 0.576651 21.956 0 23.5769 0H35.3653C36.9862 0 38.3743 0.576651 39.5296 1.72995C40.6829 2.88522 41.2595 4.27331 41.2595 5.89422V11.7884H53.048C54.6689 11.7884 56.057 12.3661 57.2123 13.5213C58.3656 14.6746 58.9422 16.0618 58.9422 17.6827V50.1009C58.9422 51.7218 58.3656 53.1099 57.2123 54.2651C56.057 55.4185 54.6689 55.9951 53.048 55.9951H5.89422ZM23.5769 11.7884H35.3653V5.89422H23.5769V11.7884Z" fill="black"/>
</svg>
