<svg width="54" height="54" viewBox="0 0 54 54" fill="none" xmlns="http://www.w3.org/2000/svg">
<path d="M39.0197 25.0766L43.6467 20.4497L32.595 9.39802L27.9681 14.025L15.767 1.85341C13.4683 -0.445334 9.72547 -0.445334 7.42672 1.85341L1.82721 7.45292C-0.471538 9.75167 -0.471538 13.4945 1.82721 15.7932L13.9988 27.9648L0.442067 41.551C0.147356 41.8457 0 42.1994 0 42.6119V51.5712C0 52.3964 0.648364 53.0447 1.47356 53.0447H10.4328C10.8159 53.0447 11.199 52.8974 11.4643 52.6027L25.0799 38.987L37.2515 51.1586C41.1417 55.0488 45.3855 51.3649 45.5918 51.1586L51.1913 45.5591C53.4901 43.2603 53.4901 39.5175 51.1913 37.2187L39.0197 25.0766ZM18.2131 23.7799L6.01211 11.6083L11.5821 6.00884L15.325 9.75167L13.9398 11.1958C13.3888 11.7468 13.0792 12.4942 13.0792 13.2735C13.0792 14.0528 13.3888 14.8001 13.9398 15.3512C14.4909 15.9022 15.2383 16.2118 16.0175 16.2118C16.7968 16.2118 17.5442 15.9022 18.0953 15.3512L19.5099 13.9366L23.7832 18.2099L18.2131 23.7799ZM41.4364 47.0326L29.2648 34.8611L34.8643 29.2615L39.1376 33.5349L37.723 34.9495C37.4502 35.2223 37.2337 35.5462 37.0861 35.9027C36.9384 36.2592 36.8624 36.6413 36.8624 37.0272C36.8624 37.413 36.9384 37.7951 37.0861 38.1516C37.2337 38.5081 37.4502 38.832 37.723 39.1049C37.9959 39.3777 38.3198 39.5942 38.6763 39.7418C39.0328 39.8895 39.4149 39.9655 39.8007 39.9655C40.1866 39.9655 40.5687 39.8895 40.9252 39.7418C41.2817 39.5942 41.6056 39.3777 41.8784 39.1049L43.2931 37.6903L47.0359 41.4331L41.4364 47.0326ZM52.1933 11.9031C52.4665 11.6304 52.6833 11.3066 52.8312 10.95C52.9791 10.5935 53.0552 10.2113 53.0552 9.82535C53.0552 9.43937 52.9791 9.05718 52.8312 8.70066C52.6833 8.34414 52.4665 8.02028 52.1933 7.74763L45.2971 0.851394C43.912 -0.533748 41.9963 -0.00326792 41.1417 0.851394L35.7485 6.24461L46.8001 17.2963L52.1933 11.9031Z" fill="black"/>
</svg>
