<svg width="59" height="48" viewBox="0 0 59 48" fill="none" xmlns="http://www.w3.org/2000/svg">
<path d="M53.048 11.7884L29.4711 26.524L5.89422 11.7884V5.89422L29.4711 20.6298L53.048 5.89422M53.048 0H5.89422C2.62293 0 0 2.62293 0 5.89422V41.2595C0 42.8228 0.620996 44.322 1.72638 45.4274C2.83176 46.5328 4.33098 47.1538 5.89422 47.1538H53.048C54.6112 47.1538 56.1105 46.5328 57.2158 45.4274C58.3212 44.322 58.9422 42.8228 58.9422 41.2595V5.89422C58.9422 4.33098 58.3212 2.83176 57.2158 1.72638C56.1105 0.620996 54.6112 0 53.048 0Z" fill="black"/>
</svg>
